<?xml version="1.0" encoding="utf-8"?>
<!-- Generator: Adobe Illustrator 16.0.0, SVG Export Plug-In . SVG Version: 6.00 Build 0)  -->
<!DOCTYPE svg PUBLIC "-//W3C//DTD SVG 1.1//EN" "http://www.w3.org/Graphics/SVG/1.1/DTD/svg11.dtd">
<svg version="1.1" xmlns="http://www.w3.org/2000/svg" xmlns:xlink="http://www.w3.org/1999/xlink" x="0px" y="0px" width="200px"
	 height="200px" viewBox="0 0 200 200" enable-background="new 0 0 200 200" xml:space="preserve">
<g id="Layer_4">
	<circle fill="#662D91" stroke="#662D91" stroke-width="0.7944" cx="100.122" cy="100.122" r="99.622"/>
	<circle fill="#FFFFFF" stroke="#999999" stroke-width="1.1916" cx="99.349" cy="100.564" r="74.552"/>
	<circle fill="none" stroke="#FFFFFF" stroke-width="2.3832" cx="100.444" cy="100.565" r="90.836"/>
	<g>
		<g>
			<defs>
				<rect id="SVGID_1_" x="-14.899" y="-14.721" width="239.281" height="240.251"/>
			</defs>
			<clipPath id="SVGID_2_">
				<use xlink:href="#SVGID_1_"  overflow="visible"/>
			</clipPath>
			<g opacity="0.75" clip-path="url(#SVGID_2_)">
				<g>
					<defs>
						<rect id="SVGID_3_" x="140.334" y="31.28" width="33.836" height="40.487"/>
					</defs>
					<clipPath id="SVGID_4_">
						<use xlink:href="#SVGID_3_"  overflow="visible"/>
					</clipPath>
				</g>
			</g>
			<g opacity="0.75" clip-path="url(#SVGID_2_)">
				<g>
					<defs>
						<rect id="SVGID_5_" x="32.486" y="138.953" width="40.404" height="33.922"/>
					</defs>
					<clipPath id="SVGID_6_">
						<use xlink:href="#SVGID_5_"  overflow="visible"/>
					</clipPath>
				</g>
			</g>
		</g>
		
			<text transform="matrix(1 0 0 2.5055 53.9668 128.6421)" stroke="#000000" stroke-width="0.3464" stroke-miterlimit="10" font-family="'Raleway-Light'" font-size="31.0308">U</text>
		<g>
			<path fill="none" stroke="#000000" stroke-miterlimit="10" d="M62.035,123.317c-0.973-1.372-1.748-3.187-2.327-5.44
				c-0.58-2.256-0.988-4.833-1.226-7.737c-0.238-2.901-0.357-5.881-0.357-8.94V73.442h-1.582v27.756
				c0,3.525,0.149,6.946,0.449,10.263c0.301,3.317,0.807,6.285,1.521,8.902c0.714,2.618,1.66,4.717,2.839,6.298
				c1.18,1.58,2.639,2.371,4.377,2.371c1.695,0,3.128-0.75,4.297-2.255c1.168-1.503,2.115-3.537,2.84-6.104
				c0.723-2.565,1.245-5.532,1.566-8.901c0.32-3.369,0.48-6.894,0.48-10.574V73.442H73.33v27.756c0,2.954-0.119,5.884-0.356,8.784
				c-0.238,2.905-0.647,5.496-1.226,7.775c-0.58,2.281-1.361,4.122-2.344,5.521c-0.982,1.399-2.219,2.1-3.708,2.1
				C64.229,125.378,63.008,124.692,62.035,123.317z"/>
		</g>
		<text transform="matrix(1 0 0 1 76.6201 97.9429)"><tspan x="0" y="0" font-family="'Raleway-Medium'" font-size="34.2922">or</tspan><tspan x="32.92" y="0" font-family="'Raleway-Medium'" font-size="34.2922">l</tspan><tspan x="42.453" y="0" font-family="'Raleway-Medium'" font-size="34.2922">d</tspan></text>
		<text transform="matrix(1 0 0 1 76.2773 129.3188)" font-family="'Raleway-Medium'" font-size="34.2922">niting</text>
		<text transform="matrix(1 0 0 1.1669 39.7012 100.5415)" fill="#FFFFFF" font-family="'Raleway-Medium'" font-size="30.9084">U</text>
		<text transform="matrix(1 0 0 1.1669 37.6299 98.4497)" font-family="'Raleway-Medium'" font-size="30.9084">U</text>
	</g>
	<rect x="107.547" y="127.405" fill="none" width="66" height="36.874"/>
	<text transform="matrix(1 0 0 1 107.5469 143.0249)" font-family="'MyriadPro-Regular'" font-size="22">.org</text>
</g>
<g id="Layer_3">
	<circle stroke="#000000" stroke-width="0.7944" cx="-120.379" cy="99.621" r="99.621"/>
	<circle fill="#FFFFFF" stroke="#999999" stroke-width="1.1916" cx="-121.152" cy="100.064" r="74.552"/>
	<circle fill="none" stroke="#FFFFFF" stroke-width="2.3832" cx="-120.057" cy="100.065" r="90.836"/>
	<g>
		<path stroke="#000000" stroke-width="1.5888" d="M-189.099,112.471l1.771-3.219c3.627,1.996,7.147,2.994,10.56,2.994
			c2.275,0,4.351-0.414,6.229-1.24c1.878-0.826,3.359-1.953,4.443-3.381c1.084-1.426,1.626-2.978,1.626-4.651
			c0-1.653-0.494-3.123-1.481-4.411c-0.987-1.288-2.769-2.779-5.344-4.475c-2.511-1.674-4.041-2.705-4.588-3.091
			s-1.261-0.934-2.141-1.642c-1.567-1.373-2.35-2.994-2.35-4.861c0-3.369,2.189-6.61,6.568-9.723
			c1.223-0.88,2.624-1.674,4.201-2.383c1.578-0.708,3.128-1.244,4.652-1.609c1.524-0.365,2.951-0.547,4.282-0.547
			c1.953,0,3.488,0.365,4.604,1.095c1.116,0.729,1.674,1.75,1.674,3.058c0,1.61-0.676,3.333-2.028,5.167s-3.198,3.525-5.538,5.071
			l-2.576-1.449c1.588-1.073,2.93-2.146,4.024-3.22c1.095-1.073,1.942-2.119,2.543-3.139c0.601-1.02,0.901-1.948,0.901-2.785
			c0-0.58-0.161-1.073-0.483-1.481c-0.322-0.407-0.784-0.719-1.384-0.934c-0.601-0.214-1.352-0.322-2.253-0.322
			c-1.674,0-3.472,0.327-5.393,0.982s-3.729,1.519-5.425,2.591c-3.778,2.383-5.666,5.034-5.666,7.952
			c0,0.816,0.225,1.583,0.676,2.302c0.451,0.719,1.24,1.529,2.367,2.431c1.126,0.901,2.773,2.061,4.942,3.477
			c1.609,1.052,2.828,1.911,3.654,2.576c0.826,0.666,1.508,1.363,2.044,2.092c1.202,1.524,1.803,3.231,1.803,5.119
			c0,1.46-0.381,2.941-1.143,4.443c-0.762,1.502-1.841,2.908-3.236,4.217c-3.263,3.07-7.791,4.604-13.586,4.604
			C-183.926,114.081-186.91,113.544-189.099,112.471z"/>
		<path stroke="#000000" stroke-width="1.5888" d="M-151.302,94.475l-3.123,12.459c-0.279,1.116-0.418,2.061-0.418,2.833
			c0,0.751,0.236,1.353,0.708,1.804c0.472,0.45,1.083,0.676,1.835,0.676c1.824,0,3.723-1.492,5.698-4.476l0.129-0.192
			c0.042-0.215,0.075-0.387,0.097-0.516l2.028-11.269l3.155-1.32l-2.833,10.592c-0.472,1.738-0.708,3.134-0.708,4.186
			c0,0.687,0.118,1.244,0.354,1.674c0.236,0.43,0.547,0.645,0.934,0.645c0.665,0,1.728-0.795,3.187-2.383l0.515,0.45l-0.322,0.354
			c-1.224,1.438-2.125,2.41-2.705,2.914c-0.579,0.504-1.116,0.756-1.609,0.756c-0.666,0-1.229-0.338-1.69-1.014
			c-0.462-0.676-0.692-1.519-0.692-2.527c0-0.322,0.011-0.623,0.032-0.902c-2.232,2.963-4.443,4.443-6.632,4.443
			c-1.095,0-1.97-0.316-2.624-0.949c-0.655-0.633-0.982-1.476-0.982-2.527c0-0.816,0.118-1.814,0.354-2.994l2.189-11.397
			L-151.302,94.475z"/>
		<path stroke="#000000" stroke-width="1.5888" d="M-137.651,113.63l3.413-17.836l3.059-1.32l-2.769,11.815
			c1.781-3.756,3.552-6.61,5.312-8.563c1.76-1.953,3.445-2.93,5.055-2.93c0.793,0,1.438,0.263,1.932,0.789
			c0.494,0.526,0.74,1.229,0.74,2.108c0,0.494-0.118,1.191-0.354,2.093l-0.322,1.353l-0.966,3.928l-0.322,1.256
			c-0.322,1.287-0.483,2.275-0.483,2.961c0,0.688,0.118,1.24,0.354,1.658c0.236,0.419,0.547,0.629,0.934,0.629
			c0.665,0,1.728-0.795,3.187-2.383l0.515,0.45l-0.321,0.354c-1.224,1.438-2.125,2.41-2.705,2.914
			c-0.579,0.504-1.116,0.756-1.609,0.756c-0.666,0-1.229-0.338-1.69-1.014c-0.462-0.676-0.692-1.519-0.692-2.527
			c0-0.688,0.129-1.707,0.387-3.059l1.255-6.826c0.171-1.073,0.258-1.824,0.258-2.253c0-0.451-0.119-0.794-0.354-1.03
			c-0.236-0.236-0.558-0.354-0.966-0.354c-1.481,0-3.305,1.588-5.473,4.765c-1.052,1.525-1.921,3.032-2.607,4.523
			c-0.688,1.492-1.46,3.559-2.318,6.197l-0.29,0.87L-137.651,113.63z"/>
		<path stroke="#000000" stroke-width="1.5888" d="M-93.223,67.946l-8.531,37.121c-0.451,1.975-0.676,3.348-0.676,4.121
			c0,0.688,0.123,1.244,0.369,1.674c0.247,0.43,0.586,0.645,1.015,0.645c0.558,0,1.234-0.42,2.028-1.256l0.934-0.934
			c0.021-0.021,0.043-0.043,0.064-0.064s0.054-0.043,0.097-0.064l0.483,0.45l-0.258,0.29c-0.816,0.901-1.234,1.363-1.256,1.385
			l-1.062,1.062c-0.537,0.536-0.928,0.874-1.175,1.014c-0.247,0.139-0.521,0.209-0.821,0.209c-0.708,0-1.299-0.365-1.771-1.094
			c-0.472-0.73-0.708-1.567-0.708-2.512c0-0.559,0.149-1.578,0.45-3.059l0.354-1.835c-0.559,1.353-1.438,2.822-2.641,4.411
			c-2.168,2.789-4.271,4.185-6.31,4.185c-1.224,0-2.189-0.445-2.897-1.336c-0.709-0.891-1.062-2.098-1.062-3.622
			c0-2.125,0.559-4.276,1.674-6.455c1.115-2.178,2.538-3.976,4.266-5.393c1.729-1.417,3.45-2.125,5.168-2.125
			c1.266,0,2.446,0.376,3.541,1.127l5.248-26.303L-93.223,67.946z M-102.236,97.501c-0.193-0.58-0.592-1.046-1.191-1.4
			c-0.602-0.354-1.246-0.531-1.932-0.531c-1.01,0-2.045,0.451-3.107,1.352s-2.066,2.179-3.01,3.831
			c-0.688,1.224-1.251,2.56-1.69,4.008c-0.44,1.449-0.66,2.764-0.66,3.944c0,1.03,0.22,1.856,0.66,2.479
			c0.439,0.623,1.046,0.934,1.819,0.934c0.9,0,1.872-0.461,2.913-1.385c1.041-0.922,2.087-2.254,3.14-3.992
			c0.708-1.18,1.266-2.403,1.674-3.67c0.493-1.631,0.848-2.94,1.062-3.928L-102.236,97.501z"/>
		<path stroke="#000000" stroke-width="1.5888" d="M-77.479,94.281l-3.025,11.784c-0.322,1.287-0.484,2.297-0.484,3.025
			c0,0.645,0.141,1.203,0.42,1.675c0.277,0.473,0.621,0.708,1.029,0.708c0.623,0,1.652-0.762,3.092-2.285l0.449,0.45l-0.354,0.419
			c-1.139,1.309-2.012,2.227-2.623,2.752c-0.613,0.526-1.145,0.789-1.594,0.789c-0.688,0-1.283-0.359-1.787-1.078
			c-0.506-0.719-0.758-1.551-0.758-2.495c0-0.687,0.258-2.243,0.773-4.669l0.258-1.223c-0.795,1.846-1.857,3.617-3.188,5.312
			c-2.232,2.832-4.369,4.249-6.407,4.249c-1.224,0-2.189-0.439-2.897-1.319c-0.709-0.881-1.062-2.061-1.062-3.542
			c0-2.017,0.574-4.132,1.723-6.343c1.147-2.21,2.575-4.029,4.281-5.457c1.707-1.427,3.365-2.141,4.975-2.141
			c1.695,0,2.963,0.623,3.799,1.867l0.355-1.223L-77.479,94.281z M-81.182,98.402c-0.256-0.815-0.691-1.454-1.303-1.916
			c-0.611-0.461-1.314-0.692-2.109-0.692c-0.945,0-1.943,0.435-2.994,1.304c-1.053,0.869-2.018,2.076-2.898,3.622
			c-0.687,1.224-1.26,2.575-1.722,4.057s-0.692,2.704-0.692,3.671c0,1.094,0.209,1.953,0.628,2.575s1.015,0.934,1.786,0.934
			c0.988,0,2.018-0.462,3.092-1.384c1.072-0.924,2.135-2.243,3.188-3.961c0.645-0.986,1.148-1.975,1.514-2.962
			c0.363-0.987,0.771-2.36,1.223-4.121L-81.182,98.402z"/>
		<path stroke="#000000" stroke-width="1.5888" d="M-77.061,124.738l1.578-2.125c1.244,1.331,2.65,1.996,4.217,1.996
			c1.652,0,2.984-0.655,3.992-1.964c1.01-1.31,1.836-3.456,2.479-6.439l1.482-6.664c-2.361,2.77-4.498,4.153-6.408,4.153
			c-1.115,0-1.99-0.343-2.623-1.03c-0.633-0.687-0.949-1.609-0.949-2.769c0-0.772,0.096-1.62,0.289-2.544l2.189-11.558l3.123-1.32
			l-3.123,12.975c-0.258,1.051-0.387,1.834-0.387,2.35c0,0.73,0.221,1.326,0.66,1.787s1.025,0.691,1.754,0.691
			c0.795,0,1.67-0.348,2.625-1.046c0.955-0.697,2.023-1.743,3.203-3.139l2.77-12.299l3.025-1.32l-4.701,18.93
			c-0.557,2.275-1.088,4.057-1.592,5.345c-0.506,1.288-1.09,2.36-1.756,3.22c-2.104,2.704-4.668,4.057-7.693,4.057
			C-74.666,126.026-76.051,125.596-77.061,124.738z"/>
	</g>
	<g id="face">
	</g>
	<g>
		<path stroke="#000000" stroke-width="0.7944" d="M-151.034,77.646l0.631-1.536c1.069,0.456,2.242,0.683,3.516,0.683
			c1.49,0,2.813-0.401,3.968-1.204c1.154-0.802,2.187-2.028,3.098-3.678c0.295-0.546,0.586-1.169,0.87-1.869
			s0.637-1.681,1.058-2.944c0.353-1.047,0.697-2.176,1.033-3.388c0.335-1.212,0.62-2.318,0.854-3.32
			c0.233-1.001,0.458-2.116,0.674-3.345l1.826-0.819l-0.119-0.017l-0.341-0.051c-2.583-0.318-5.063-0.478-7.441-0.478
			c-1.218,0-2.242,0.08-3.072,0.239c-0.831,0.16-1.536,0.416-2.116,0.768c-0.796,0.501-1.195,1.144-1.195,1.929
			c0,1.604,2.002,2.515,6.008,2.731l-1.161,1.211c-1.092-0.068-2.042-0.267-2.85-0.597c-0.808-0.33-1.431-0.768-1.869-1.314
			c-0.438-0.546-0.657-1.166-0.657-1.86c0-1.399,0.881-2.526,2.646-3.379c1.49-0.717,3.681-1.075,6.571-1.075
			c0.785,0,1.789,0.045,3.012,0.136c1.223,0.091,2.489,0.208,3.797,0.35s2.395,0.293,3.26,0.452l0.307,0.051l-0.768,1.536
			l-0.308-0.051c-1.001-0.182-2.167-0.37-3.499-0.563l-0.12-0.017l-0.051,0.239l-0.051,0.239c-0.899,4.108-1.827,7.49-2.782,10.146
			s-2.031,4.782-3.226,6.375c-1.195,1.593-2.586,2.748-4.173,3.465c-1.587,0.717-3.462,1.075-5.624,1.075
			C-149.896,77.766-150.465,77.726-151.034,77.646z"/>
		<path stroke="#000000" stroke-width="0.7944" d="M-132.056,77.152l4.54-23.348l1.792-0.871l-4.728,20.788
			c0.045-0.08,0.068-0.131,0.068-0.154l0.393-0.887c0.671-1.525,1.513-2.845,2.526-3.96c0.956-1.035,1.837-1.553,2.646-1.553
			c0.432,0,0.779,0.139,1.041,0.418s0.393,0.651,0.393,1.118c0,0.262-0.062,0.631-0.188,1.109l-0.17,0.717l-0.529,2.082
			l-0.153,0.666c-0.171,0.683-0.256,1.206-0.256,1.57s0.062,0.657,0.188,0.879c0.125,0.222,0.29,0.333,0.495,0.333
			c0.353,0,0.916-0.421,1.689-1.263l0.256,0.239l-0.153,0.188c-0.649,0.762-1.129,1.277-1.442,1.544s-0.595,0.401-0.845,0.401
			c-0.353,0-0.654-0.188-0.905-0.563s-0.375-0.813-0.375-1.314c0-0.308,0.074-0.848,0.222-1.622l0.648-3.618
			c0.103-0.535,0.154-0.933,0.154-1.195c0-0.239-0.063-0.421-0.188-0.546c-0.125-0.125-0.296-0.188-0.512-0.188
			c-0.421,0-0.904,0.248-1.451,0.743c-0.546,0.495-1.095,1.18-1.647,2.056c-0.552,0.876-1.032,1.812-1.442,2.808
			c-0.41,0.996-0.717,2.017-0.922,3.064L-132.056,77.152z"/>
		<path stroke="#000000" stroke-width="0.7944" d="M-117.686,66.997l-1.501,5.615c-0.25,0.921-0.375,1.661-0.375,2.219
			c0,0.364,0.062,0.66,0.188,0.887c0.125,0.228,0.291,0.342,0.495,0.342c0.353,0,0.916-0.421,1.69-1.263l0.272,0.239l-0.171,0.188
			c-0.648,0.762-1.127,1.277-1.434,1.544s-0.592,0.401-0.853,0.401c-0.353,0-0.652-0.179-0.896-0.538
			c-0.245-0.358-0.367-0.805-0.367-1.339c0-0.341,0.068-0.882,0.205-1.622l1.076-5.974L-117.686,66.997z M-117.189,60.306
			c0.295,0,0.534,0.091,0.717,0.273c0.182,0.182,0.272,0.421,0.272,0.717c0,0.284-0.097,0.523-0.29,0.717s-0.427,0.29-0.699,0.29
			c-0.263,0-0.496-0.103-0.7-0.307c-0.205-0.205-0.308-0.438-0.308-0.7c0-0.273,0.097-0.506,0.291-0.7
			C-117.713,60.403-117.475,60.306-117.189,60.306z"/>
		<path stroke="#000000" stroke-width="0.7944" d="M-117.002,75.889l0.955-1.126c0.501,1.184,1.298,1.775,2.391,1.775
			c0.568,0,1.055-0.185,1.459-0.555c0.403-0.37,0.605-0.799,0.605-1.289c0-0.353-0.097-0.654-0.29-0.904
			c-0.194-0.25-0.654-0.671-1.382-1.263c-0.672-0.546-1.125-0.976-1.357-1.289c-0.233-0.313-0.35-0.674-0.35-1.083
			c0-0.535,0.156-1.03,0.469-1.485s0.731-0.822,1.255-1.101c0.522-0.279,1.075-0.418,1.655-0.418c0.512,0,0.941,0.128,1.289,0.384
			c0.347,0.256,0.52,0.583,0.52,0.981c0,0.523-0.221,0.882-0.665,1.075c-0.068-0.535-0.271-0.953-0.606-1.254
			c-0.335-0.301-0.765-0.452-1.288-0.452c-0.467,0-0.874,0.151-1.22,0.452c-0.348,0.302-0.521,0.646-0.521,1.033
			c0,0.478,0.297,0.95,0.888,1.417l0.99,0.802c0.967,0.762,1.45,1.542,1.45,2.338c0,0.592-0.168,1.146-0.503,1.664
			c-0.336,0.518-0.791,0.93-1.366,1.237c-0.574,0.308-1.18,0.461-1.816,0.461C-115.455,77.288-116.309,76.822-117.002,75.889z"/>
	</g>
	<g>
		<path stroke="#000000" stroke-width="1.5888" d="M-138.895,133.021c-0.791-0.739-1.341-1.42-1.652-2.042
			c-0.311-0.621-0.466-1.311-0.466-2.067c0-0.991,0.261-1.891,0.782-2.698c0.521-0.807,1.239-1.445,2.156-1.916
			c0.916-0.471,1.937-0.705,3.063-0.705c1.042,0,1.979,0.197,2.811,0.592c0.832,0.396,1.479,0.925,1.941,1.588
			c0.462,0.665,0.693,1.425,0.693,2.282c0,0.807-0.198,1.572-0.592,2.295c-0.396,0.723-0.963,1.383-1.702,1.979
			c-0.74,0.598-1.597,1.072-2.572,1.425l0.252,0.202c1.193,0.941,2.004,1.744,2.433,2.407c0.429,0.664,0.643,1.459,0.643,2.383
			c0,1.664-0.668,3.063-2.004,4.198s-2.997,1.701-4.979,1.701c-1.933,0-3.504-0.491-4.715-1.475
			c-1.21-0.983-1.815-2.257-1.815-3.819c0-1.345,0.513-2.589,1.538-3.731C-142.056,134.475-140.66,133.61-138.895,133.021z
			 M-138.416,133.424c-1.294,0.388-2.336,1.068-3.126,2.043c-0.791,0.975-1.185,2.093-1.185,3.353c0,0.942,0.235,1.808,0.706,2.598
			c0.47,0.79,1.105,1.416,1.903,1.878c0.798,0.463,1.677,0.693,2.635,0.693c1.294,0,2.37-0.403,3.228-1.21
			c0.857-0.807,1.286-1.823,1.286-3.051c0-1.312-0.664-2.529-1.992-3.656C-135.987,135.165-137.139,134.282-138.416,133.424z
			 M-134.962,133.324c0.655-0.218,1.269-0.593,1.84-1.122s1.017-1.143,1.336-1.84s0.479-1.399,0.479-2.105
			c0-1.16-0.391-2.122-1.172-2.887c-0.782-0.766-1.727-1.147-2.836-1.147c-0.74,0-1.433,0.159-2.08,0.479
			c-0.647,0.318-1.16,0.756-1.538,1.311c-0.378,0.555-0.567,1.151-0.567,1.79C-139.5,129.483-137.987,131.324-134.962,133.324z"/>
		<path stroke="#000000" stroke-width="1.5888" d="M-111.201,129.391l-2.369,9.228c-0.253,1.009-0.379,1.799-0.379,2.37
			c0,0.504,0.109,0.941,0.328,1.311c0.218,0.37,0.486,0.555,0.807,0.555c0.487,0,1.294-0.596,2.42-1.79l0.354,0.354l-0.277,0.327
			c-0.891,1.025-1.576,1.744-2.055,2.156c-0.479,0.411-0.896,0.617-1.248,0.617c-0.539,0-1.005-0.281-1.399-0.845
			c-0.396-0.562-0.593-1.214-0.593-1.953c0-0.538,0.201-1.757,0.605-3.656l0.201-0.958c-0.621,1.445-1.453,2.832-2.496,4.16
			c-1.748,2.219-3.42,3.328-5.017,3.328c-0.958,0-1.714-0.345-2.269-1.034c-0.555-0.688-0.832-1.613-0.832-2.773
			c0-1.579,0.45-3.235,1.349-4.967c0.899-1.73,2.017-3.155,3.354-4.273c1.336-1.117,2.635-1.677,3.896-1.677
			c1.327,0,2.319,0.488,2.976,1.463l0.277-0.959L-111.201,129.391z M-114.101,132.618c-0.202-0.639-0.542-1.139-1.021-1.5
			c-0.479-0.361-1.03-0.542-1.652-0.542c-0.739,0-1.521,0.341-2.344,1.021c-0.824,0.681-1.581,1.626-2.27,2.836
			c-0.539,0.958-0.988,2.018-1.349,3.177c-0.362,1.16-0.542,2.118-0.542,2.874c0,0.857,0.164,1.53,0.492,2.018
			s0.794,0.731,1.399,0.731c0.773,0,1.58-0.361,2.42-1.085c0.841-0.722,1.673-1.756,2.496-3.101
			c0.504-0.773,0.899-1.547,1.186-2.319c0.285-0.773,0.605-1.85,0.958-3.228L-114.101,132.618z"/>
		<path stroke="#000000" stroke-width="1.5888" d="M-95.887,144.014l-1.664,0.529l1.992-10.262l0.176-0.882
			c0.102-0.487,0.152-0.891,0.152-1.211c0-0.739-0.295-1.109-0.883-1.109c-0.555,0-1.228,0.375-2.018,1.122
			c-0.79,0.748-1.622,1.828-2.496,3.24c-0.571,0.907-1.062,1.781-1.475,2.622s-0.791,1.735-1.135,2.686
			c-0.345,0.949-0.677,2.038-0.996,3.265l-1.562,0.529l2.597-13.968l2.421-1.034l-2.194,9.152c1.126-2.604,2.417-4.743,3.87-6.416
			c1.454-1.673,2.762-2.509,3.921-2.509c1.261,0,1.892,0.715,1.892,2.143c0,0.488-0.127,1.354-0.379,2.598l-0.832,3.757
			c1.631-3.127,3.008-5.333,4.135-6.619c1.127-1.285,2.244-1.929,3.354-1.929c0.621,0,1.109,0.186,1.463,0.555
			c0.352,0.37,0.529,0.899,0.529,1.589c0,0.555-0.168,1.513-0.504,2.874l-0.783,3.102l-0.252,0.982
			c-0.234,1.043-0.352,1.815-0.352,2.32c0,0.538,0.092,0.971,0.277,1.298c0.184,0.328,0.42,0.492,0.705,0.492
			c0.537,0,1.379-0.622,2.521-1.866l0.379,0.354l-0.229,0.277c-0.957,1.126-1.668,1.887-2.129,2.281
			c-0.463,0.395-0.887,0.593-1.273,0.593c-0.521,0-0.963-0.265-1.324-0.794s-0.543-1.189-0.543-1.979
			c0-0.487,0.109-1.286,0.328-2.396l0.934-5.219l0.15-0.907c0.102-0.505,0.152-0.908,0.152-1.211s-0.094-0.546-0.277-0.73
			c-0.186-0.186-0.438-0.277-0.756-0.277c-0.371,0-0.779,0.155-1.225,0.466c-0.445,0.312-0.92,0.786-1.424,1.425
			s-1.067,1.479-1.689,2.521c-0.84,1.429-1.521,2.761-2.042,3.996S-95.399,142.215-95.887,144.014z"/>
	</g>
	<circle stroke="#000000" stroke-width="0.7944" cx="539.622" cy="101.789" r="99.622"/>
	<circle fill="#FFFFFF" stroke="#999999" stroke-width="1.1916" cx="538.849" cy="102.231" r="74.552"/>
	<circle fill="none" stroke="#FFFFFF" stroke-width="2.3832" cx="539.944" cy="102.233" r="90.836"/>
	<g>
		<path stroke="#000000" stroke-width="1.5888" d="M565.104,106.557h-3.092l6.793-32.485l0.227-1.126
			c0.149-0.794,0.225-1.341,0.225-1.642c0-0.407-0.107-0.746-0.322-1.014c-0.215-0.268-0.515-0.402-0.9-0.402
			c-0.602,0-1.277,0.365-2.029,1.095c-0.751,0.73-1.695,1.953-2.833,3.67c-1.76,2.619-3.681,6.257-5.763,10.914
			c-1.631,3.67-3.021,7.239-4.17,10.705s-2.087,6.896-2.816,10.286h-2.672l7.469-34.964c0.236-1.094,0.354-1.953,0.354-2.575
			c0-0.279-0.054-0.547-0.161-0.805c-0.107-0.257-0.252-0.451-0.435-0.58c-0.183-0.128-0.392-0.193-0.628-0.193
			c-1.009,0-2.243,0.982-3.702,2.946c-1.46,1.964-3.188,5.017-5.184,9.159c-0.944,1.868-1.856,3.821-2.736,5.86
			s-1.663,3.938-2.351,5.698c-0.688,1.76-1.459,3.907-2.318,6.439c-1.244,3.692-2.146,6.696-2.704,9.015h-2.704l0.097-0.451
			l1.384-5.505c0.494-2.103,0.923-3.971,1.288-5.602c1.695-7.684,2.94-13.961,3.735-18.834c0.664-3.82,0.998-6.578,0.998-8.274
			c0-1.245-0.188-2.206-0.564-2.881c-0.375-0.676-0.896-1.014-1.561-1.014c-1.632,0-3.08,2.168-4.347,6.503
			c-0.794,2.726-1.406,5.666-1.835,8.821l-2.415-1.578c0.364-2.769,0.972-5.269,1.819-7.501c0.848-2.232,1.855-3.997,3.026-5.296
			c1.169-1.298,2.354-1.948,3.558-1.948c1.373,0,2.451,0.73,3.235,2.189c0.783,1.46,1.175,3.456,1.175,5.988
			c0,2.125-0.193,4.54-0.579,7.244c-0.108,0.794-0.45,2.812-1.03,6.052l-1.288,7.019l0.193-0.611
			c1.546-4.207,3.788-9.165,6.729-14.874c1.845-3.542,3.557-6.219,5.135-8.033c1.577-1.813,3.01-2.721,4.298-2.721
			c0.815,0,1.491,0.317,2.028,0.95c0.536,0.633,0.805,1.444,0.805,2.431c0,1.009-0.204,2.469-0.611,4.379l-3.734,17.836
			c0.277-0.794,0.922-2.318,1.932-4.572c2.939-6.524,5.451-11.23,7.533-14.118c2.082-2.886,4.002-4.33,5.763-4.33
			c0.88,0,1.583,0.306,2.108,0.917s0.789,1.422,0.789,2.431c0,0.816-0.183,2.05-0.547,3.703L565.104,106.557z"/>
		<path stroke="#000000" stroke-width="1.5888" d="M578.979,87.723l-2.833,10.592c-0.472,1.738-0.708,3.134-0.708,4.185
			c0,0.688,0.117,1.245,0.354,1.674c0.236,0.43,0.548,0.645,0.934,0.645c0.666,0,1.729-0.794,3.188-2.383l0.516,0.451l-0.322,0.354
			c-1.223,1.438-2.125,2.41-2.704,2.914s-1.116,0.756-1.61,0.756c-0.665,0-1.229-0.338-1.689-1.014
			c-0.462-0.676-0.692-1.518-0.692-2.527c0-0.644,0.129-1.663,0.386-3.058l2.029-11.269L578.979,87.723z M579.912,75.103
			c0.559,0,1.01,0.172,1.353,0.515c0.343,0.344,0.515,0.794,0.515,1.353c0,0.537-0.182,0.987-0.547,1.352
			c-0.365,0.365-0.805,0.547-1.32,0.547c-0.494,0-0.934-0.193-1.319-0.58c-0.387-0.386-0.579-0.826-0.579-1.32
			c0-0.515,0.182-0.955,0.547-1.32C578.926,75.285,579.376,75.103,579.912,75.103z"/>
		<path stroke="#000000" stroke-width="1.5888" d="M595.56,101.728c-1.31,1.847-2.581,3.192-3.815,4.04s-2.603,1.271-4.105,1.271
			c-1.652,0-2.999-0.579-4.039-1.738c-1.041-1.158-1.562-2.66-1.562-4.507c0-1.932,0.505-3.896,1.514-5.892
			c1.008-1.996,2.302-3.648,3.879-4.958c1.578-1.309,3.096-1.964,4.557-1.964c0.986,0,1.781,0.274,2.382,0.821
			s0.901,1.283,0.901,2.205c0,0.837-0.316,1.637-0.949,2.398c-0.634,0.762-1.315,1.143-2.045,1.143
			c-0.322,0-0.611-0.129-0.869-0.386c1.395-0.622,2.093-1.781,2.093-3.477c0-0.601-0.156-1.067-0.467-1.4
			c-0.312-0.333-0.725-0.499-1.239-0.499c-0.795,0-1.594,0.322-2.398,0.966s-1.562,1.54-2.27,2.688
			c-0.709,1.148-1.262,2.372-1.658,3.67c-0.398,1.299-0.596,2.613-0.596,3.944c0,1.589,0.375,2.876,1.127,3.863
			c0.75,0.988,1.738,1.481,2.961,1.481c1.052,0,2.071-0.333,3.059-0.998s2.018-1.685,3.091-3.058L595.56,101.728z"/>
	</g>
	<g>
		<path stroke="#000000" stroke-width="0.7944" d="M499.871,83.751c0,1.57-0.262,3.155-0.785,4.753
			c-0.523,1.599-1.258,3.098-2.202,4.498c-0.808,1.194-1.722,2.222-2.739,3.081c-1.019,0.859-2.097,1.505-3.234,1.937
			s-2.31,0.648-3.516,0.648c-1.059,0-2.039-0.188-2.943-0.563c-0.905-0.375-1.68-0.913-2.322-1.613s-1.135-1.547-1.477-2.543
			c-0.341-0.996-0.512-2.08-0.512-3.251c0-1.9,0.348-3.766,1.041-5.598c0.694-1.832,1.627-3.461,2.799-4.89
			c1.172-1.428,2.506-2.557,4.003-3.388c1.496-0.831,3.023-1.246,4.583-1.246c1.444,0,2.719,0.341,3.822,1.024
			s1.96,1.645,2.568,2.884C499.566,80.725,499.871,82.146,499.871,83.751z M497.908,83.034c0-1.058-0.131-2.011-0.393-2.859
			s-0.638-1.564-1.127-2.15s-1.081-1.035-1.775-1.348c-0.693-0.313-1.496-0.47-2.406-0.47c-0.944,0-1.88,0.208-2.807,0.623
			c-0.928,0.416-1.799,1.024-2.611,1.826c-0.814,0.802-1.545,1.778-2.193,2.927c-0.729,1.274-1.326,2.802-1.792,4.583
			c-0.467,1.781-0.7,3.428-0.7,4.941c0,1.422,0.23,2.657,0.691,3.704s1.123,1.854,1.988,2.423c0.865,0.569,1.86,0.854,2.986,0.854
			c1.059,0,2.108-0.267,3.149-0.802c1.041-0.535,1.999-1.291,2.876-2.27c0.876-0.979,1.615-2.116,2.219-3.414
			c0.535-1.149,0.984-2.528,1.348-4.139C497.726,85.853,497.908,84.377,497.908,83.034z"/>
		<path stroke="#000000" stroke-width="0.7944" d="M498.932,105.17l3.227-16.061l1.638-0.7l-1.126,4.898
			c0.842-1.695,1.635-2.916,2.381-3.661c0.744-0.745,1.562-1.118,2.449-1.118c0.682,0,1.223,0.25,1.621,0.751
			s0.598,1.189,0.598,2.065c0,0.888-0.18,1.798-0.538,2.731s-0.862,1.781-1.511,2.543c-1.172,1.411-2.463,2.116-3.874,2.116
			c-0.888,0-1.616-0.233-2.185-0.7l-1.758,7.134H498.932z M501.867,96.91c0.479,0.933,1.149,1.399,2.014,1.399
			c1.252,0,2.344-1.018,3.277-3.055c0.762-1.639,1.144-3.015,1.144-4.13c0-0.603-0.114-1.069-0.341-1.399
			c-0.229-0.33-0.553-0.495-0.973-0.495c-0.684,0-1.4,0.45-2.151,1.348c-0.717,0.888-1.325,1.877-1.826,2.97
			c-0.193,0.433-0.372,0.894-0.538,1.382c-0.164,0.49-0.32,0.99-0.469,1.502L501.867,96.91z"/>
		<path stroke="#000000" stroke-width="0.7944" d="M518.115,95.749l0.307,0.256c-0.705,0.933-1.393,1.607-2.064,2.022
			c-0.672,0.416-1.395,0.623-2.168,0.623c-0.922,0-1.661-0.307-2.219-0.921c-0.557-0.615-0.836-1.428-0.836-2.441
			c0-1.024,0.271-2.062,0.811-3.115c0.541-1.052,1.218-1.922,2.031-2.611s1.619-1.033,2.415-1.033c0.466,0,0.851,0.136,1.151,0.41
			c0.302,0.273,0.453,0.626,0.453,1.058c0,0.876-0.479,1.752-1.434,2.628c-0.956,0.876-2.259,1.621-3.908,2.236
			c-0.012,0.091-0.018,0.193-0.018,0.307c0,0.785,0.217,1.425,0.648,1.92c0.433,0.495,0.99,0.743,1.673,0.743
			c0.534,0,1.052-0.168,1.554-0.504C517.012,96.992,517.547,96.466,518.115,95.749z M512.654,94.452
			c1.229-0.546,2.173-1.155,2.832-1.826c0.444-0.455,0.803-0.944,1.076-1.468s0.409-0.996,0.409-1.417
			c0-0.535-0.245-0.802-0.733-0.802c-0.74,0-1.488,0.583-2.244,1.749C513.236,91.855,512.791,93.109,512.654,94.452z"/>
		<path stroke="#000000" stroke-width="0.7944" d="M519.771,98.565l1.809-9.456l1.621-0.7l-1.468,6.264
			c0.944-1.991,1.884-3.504,2.816-4.54c0.933-1.035,1.825-1.553,2.679-1.553c0.422,0,0.764,0.139,1.025,0.418
			s0.393,0.651,0.393,1.118c0,0.262-0.062,0.631-0.188,1.109l-0.172,0.717l-0.512,2.082l-0.17,0.666
			c-0.172,0.683-0.256,1.206-0.256,1.57s0.061,0.657,0.188,0.879c0.125,0.222,0.289,0.333,0.494,0.333
			c0.354,0,0.916-0.421,1.689-1.263l0.273,0.239l-0.17,0.188c-0.648,0.762-1.127,1.277-1.434,1.544
			c-0.309,0.267-0.592,0.401-0.854,0.401c-0.354,0-0.652-0.179-0.896-0.538s-0.367-0.805-0.367-1.339
			c0-0.364,0.068-0.905,0.205-1.622l0.666-3.618c0.09-0.569,0.137-0.967,0.137-1.195c0-0.239-0.062-0.421-0.189-0.546
			c-0.125-0.125-0.295-0.188-0.512-0.188c-0.785,0-1.752,0.842-2.9,2.526c-0.559,0.808-1.02,1.607-1.383,2.398
			c-0.364,0.791-0.773,1.886-1.229,3.286l-0.154,0.461L519.771,98.565z"/>
	</g>
	<path fill="#010101" d="M507.367,122.364"/>
	<line fill="none" x1="509.785" y1="115.083" x2="507.367" y2="122.364"/>
	<path fill="#010101" d="M565.531,138.223c-4.384-2.467-8.032-6.22-10.329-10.969c-2.29-4.748-2.952-9.942-2.151-14.904
		c5.767-1.311,12.256,2.132,15.353,8.538C571.49,127.296,570.143,134.521,565.531,138.223z M561.126,140.348
		c-4.049-2.823-7.445-6.617-9.692-11.276c-2.242-4.656-3.102-9.678-2.784-14.598c-4.615,3.698-5.959,10.922-2.872,17.326
		C548.872,138.207,555.358,141.652,561.126,140.348z M534.996,154.82c-5.903-2.062-11.413,0.152-16.272,2.107
		c-5.371,2.158-10.024,4.034-14.705,0.583c-0.773-1.124-0.585-1.762-0.521-1.979c0.421-1.443,2.812-2.749,3.898-3.157
		c0.135-0.05,0.233-0.145,0.353-0.219c1.216,0.967,2.905,1.244,4.402,0.522l34.599-12.736c-1.896-1.722-3.538-3.828-4.737-6.322
		c-1.202-2.492-1.822-5.09-1.993-7.637l-31.506,19.154c-1.325,0.64-2.087,1.902-2.259,3.261c-0.103,0.022-0.202,0.013-0.302,0.048
		c-0.543,0.201-5.333,2.052-6.47,5.895c-0.398,1.352-0.491,3.469,1.351,5.912l0.391,0.398c1.359,1.049,2.716,1.775,4.062,2.246
		c5.255,1.832,10.375-0.225,15-2.086c4.582-1.845,8.908-3.583,13.331-2.04c10.183,3.557,14.257,17.223,14.3,17.358
		c0.314,1.116,1.179,0.912,2.281,0.585c1.112-0.315,2.059-0.637,1.735-1.745C551.748,174.324,547.233,159.088,534.996,154.82z"/>
</g>
<g id="Layer_5">
	<circle stroke="#000000" stroke-width="0.7944" cx="319.379" cy="99.622" r="99.621"/>
	<circle fill="#FFFFFF" stroke="#999999" stroke-width="1.1916" cx="318.605" cy="100.064" r="74.553"/>
	<circle fill="none" stroke="#FFFFFF" stroke-width="2.3832" cx="319.701" cy="100.065" r="90.836"/>
	<g>
		<path stroke="#000000" stroke-width="1.5888" d="M275.79,112.319l-0.715,3.544c-2.522,1.191-4.999,2.104-7.431,2.74
			c-2.434,0.636-4.643,0.953-6.628,0.953c-2.185,0-4.081-0.313-5.688-0.938c-1.609-0.625-2.846-1.533-3.709-2.725
			s-1.295-2.592-1.295-4.2c0-2.681,1.211-5.347,3.633-7.997c2.423-2.651,5.878-5.098,10.365-7.342
			c-2.145-0.357-3.217-1.469-3.217-3.336c0-2.661,2.304-5.649,6.91-8.965c1.43-1.032,2.885-1.941,4.363-2.725
			c1.48-0.785,2.87-1.385,4.17-1.802c1.301-0.417,2.447-0.625,3.441-0.625c1.031,0,1.842,0.283,2.428,0.849
			c0.585,0.566,0.878,1.336,0.878,2.309c0,0.894-0.224,1.917-0.671,3.068c-0.445,1.152-1.097,2.353-1.95,3.604
			c-0.854,1.251-1.808,2.383-2.859,3.396l-1.579-1.728c3.098-3.415,4.646-6.136,4.646-8.161c0-1.37-0.814-2.055-2.441-2.055
			c-1.033,0-2.305,0.308-3.812,0.923c-1.51,0.616-3.009,1.44-4.498,2.472c-1.986,1.351-3.559,2.79-4.721,4.319
			c-1.162,1.529-1.742,2.889-1.742,4.081c0,0.576,0.184,1.122,0.551,1.638c0.367,0.517,0.818,0.884,1.355,1.102
			c0.555,0.199,1.519,0.328,2.889,0.387h0.506l-0.387,1.906c-2.998,1.291-6.007,3.048-9.025,5.272
			c-5.004,3.693-7.506,7.169-7.506,10.425c0,1.629,0.631,2.953,1.893,3.977c1.26,1.022,2.873,1.533,4.84,1.533
			c1.369,0,2.884-0.208,4.541-0.625c1.658-0.417,3.5-1.053,5.525-1.906S273.188,113.708,275.79,112.319z"/>
		<path stroke="#000000" stroke-width="1.5888" d="M277.994,130.636l5.629-28.028l2.859-1.221l-1.965,8.549
			c1.469-2.959,2.854-5.089,4.154-6.389c1.301-1.301,2.726-1.951,4.274-1.951c1.191,0,2.134,0.437,2.829,1.311
			c0.695,0.873,1.043,2.074,1.043,3.604c0,1.549-0.312,3.138-0.938,4.766c-0.625,1.629-1.504,3.107-2.636,4.438
			c-2.045,2.463-4.299,3.693-6.762,3.693c-1.549,0-2.819-0.406-3.812-1.221l-3.067,12.45H277.994z M283.117,116.22
			c0.834,1.628,2.006,2.442,3.515,2.442c2.185,0,4.091-1.777,5.719-5.332c1.33-2.859,1.995-5.262,1.995-7.207
			c0-1.053-0.198-1.867-0.596-2.443c-0.396-0.575-0.963-0.863-1.697-0.863c-1.191,0-2.442,0.785-3.753,2.354
			c-1.251,1.549-2.313,3.275-3.187,5.182c-0.338,0.756-0.65,1.56-0.938,2.413c-0.288,0.854-0.562,1.728-0.819,2.621L283.117,116.22z
			"/>
		<path stroke="#000000" stroke-width="1.5888" d="M305.248,101.387l-2.621,9.799c-0.438,1.609-0.656,2.9-0.656,3.873
			c0,0.635,0.109,1.151,0.328,1.549c0.219,0.396,0.506,0.596,0.863,0.596c0.615,0,1.599-0.734,2.949-2.205l0.477,0.418l-0.298,0.327
			c-1.132,1.331-1.966,2.229-2.502,2.696c-0.536,0.466-1.032,0.699-1.489,0.699c-0.615,0-1.137-0.312-1.563-0.938
			c-0.427-0.627-0.641-1.405-0.641-2.339c0-0.596,0.119-1.538,0.357-2.829l1.876-10.426L305.248,101.387z M306.111,89.711
			c0.516,0,0.934,0.159,1.251,0.477c0.317,0.318,0.477,0.735,0.477,1.251c0,0.497-0.169,0.914-0.507,1.251
			c-0.338,0.338-0.744,0.506-1.221,0.506c-0.457,0-0.863-0.179-1.221-0.536s-0.537-0.764-0.537-1.221
			c0-0.477,0.169-0.883,0.507-1.221C305.197,89.88,305.615,89.711,306.111,89.711z"/>
		<path stroke="#000000" stroke-width="1.5888" d="M306.439,116.905l1.668-1.965c0.873,2.064,2.264,3.098,4.17,3.098
			c0.992,0,1.842-0.323,2.547-0.969c0.704-0.645,1.057-1.395,1.057-2.248c0-0.615-0.169-1.143-0.506-1.579
			c-0.338-0.437-1.143-1.171-2.413-2.204c-1.172-0.953-1.961-1.703-2.368-2.248c-0.406-0.547-0.61-1.178-0.61-1.893
			c0-0.933,0.272-1.797,0.819-2.591c0.546-0.794,1.275-1.435,2.189-1.921c0.912-0.486,1.876-0.73,2.889-0.73
			c0.894,0,1.643,0.225,2.248,0.67c0.606,0.447,0.909,1.019,0.909,1.713c0,0.914-0.388,1.539-1.161,1.877
			c-0.119-0.934-0.473-1.663-1.059-2.189c-0.585-0.525-1.335-0.789-2.248-0.789c-0.814,0-1.523,0.264-2.129,0.789
			c-0.606,0.526-0.909,1.127-0.909,1.803c0,0.834,0.517,1.658,1.549,2.472l1.728,1.399c1.688,1.331,2.531,2.691,2.531,4.081
			c0,1.032-0.293,2.001-0.879,2.903c-0.585,0.904-1.379,1.624-2.383,2.16c-1.002,0.536-2.06,0.805-3.172,0.805
			C309.139,119.348,307.65,118.534,306.439,116.905z"/>
		<path stroke="#000000" stroke-width="1.5888" d="M321.063,113.092c0-1.787,0.481-3.568,1.444-5.346s2.209-3.222,3.738-4.334
			c1.529-1.111,3.088-1.668,4.676-1.668c1.668,0,3.014,0.551,4.037,1.652c1.021,1.104,1.533,2.527,1.533,4.275
			c0,1.906-0.472,3.752-1.414,5.539c-0.943,1.787-2.186,3.252-3.725,4.395c-1.538,1.141-3.092,1.712-4.66,1.712
			c-1.688,0-3.049-0.571-4.081-1.712C321.58,116.463,321.063,114.959,321.063,113.092z M333.812,106.54
			c0-1.191-0.293-2.174-0.878-2.948c-0.586-0.774-1.336-1.161-2.25-1.161c-0.834,0-1.633,0.268-2.396,0.804
			c-0.766,0.536-1.465,1.321-2.101,2.353c-0.715,1.191-1.306,2.582-1.772,4.17c-0.467,1.59-0.699,2.999-0.699,4.23
			c0,1.469,0.287,2.602,0.863,3.395c0.576,0.795,1.4,1.191,2.473,1.191c1.727,0,3.246-1.201,4.557-3.604
			c0.675-1.23,1.211-2.611,1.608-4.141C333.613,109.3,333.812,107.871,333.812,106.54z"/>
		<path stroke="#000000" stroke-width="1.5888" d="M360.559,76.844l-7.893,34.342c-0.418,1.828-0.626,3.098-0.626,3.812
			c0,0.637,0.114,1.152,0.343,1.549c0.229,0.398,0.541,0.596,0.938,0.596c0.517,0,1.143-0.387,1.877-1.161l0.863-0.864
			c0.02-0.02,0.04-0.039,0.061-0.059c0.02-0.02,0.049-0.04,0.089-0.061l0.446,0.418l-0.238,0.268
			c-0.754,0.834-1.142,1.262-1.161,1.281l-0.983,0.982c-0.496,0.496-0.858,0.809-1.086,0.938c-0.229,0.13-0.482,0.194-0.76,0.194
			c-0.656,0-1.202-0.337-1.639-1.013c-0.438-0.675-0.655-1.449-0.655-2.323c0-0.517,0.139-1.46,0.417-2.829l0.328-1.698
			c-0.518,1.251-1.331,2.611-2.443,4.081c-2.006,2.581-3.951,3.871-5.838,3.871c-1.131,0-2.025-0.412-2.68-1.236
			c-0.656-0.823-0.983-1.939-0.983-3.35c0-1.967,0.517-3.957,1.549-5.973s2.349-3.678,3.946-4.988
			c1.599-1.311,3.191-1.967,4.781-1.967c1.171,0,2.264,0.348,3.275,1.043l4.855-24.334L360.559,76.844z M352.219,104.187
			c-0.179-0.536-0.547-0.968-1.102-1.296c-0.557-0.328-1.152-0.491-1.787-0.491c-0.934,0-1.893,0.417-2.875,1.251
			s-1.911,2.016-2.785,3.545c-0.635,1.131-1.156,2.367-1.562,3.707c-0.408,1.342-0.611,2.558-0.611,3.649
			c0,0.953,0.203,1.718,0.611,2.294c0.406,0.576,0.967,0.863,1.682,0.863c0.834,0,1.732-0.427,2.695-1.281
			c0.964-0.854,1.932-2.084,2.904-3.693c0.656-1.092,1.172-2.223,1.549-3.395c0.457-1.51,0.785-2.721,0.983-3.635L352.219,104.187z"
			/>
		<path stroke="#000000" stroke-width="1.5888" d="M370.508,114.195l0.535,0.446c-1.23,1.629-2.432,2.805-3.604,3.529
			c-1.172,0.726-2.432,1.088-3.783,1.088c-1.607,0-2.898-0.536-3.871-1.608s-1.46-2.491-1.46-4.259c0-1.787,0.472-3.6,1.415-5.436
			c0.943-1.838,2.125-3.356,3.545-4.559c1.418-1.201,2.824-1.801,4.213-1.801c0.814,0,1.484,0.238,2.012,0.715
			c0.525,0.477,0.789,1.092,0.789,1.846c0,1.529-0.834,3.059-2.502,4.588s-3.941,2.829-6.82,3.901
			c-0.02,0.159-0.031,0.338-0.031,0.536c0,1.37,0.379,2.486,1.133,3.352c0.754,0.863,1.727,1.295,2.918,1.295
			c0.934,0,1.838-0.293,2.711-0.879C368.582,116.364,369.514,115.446,370.508,114.195z M360.977,111.931
			c2.145-0.953,3.793-2.015,4.943-3.187c0.775-0.795,1.4-1.648,1.877-2.562c0.477-0.912,0.715-1.736,0.715-2.472
			c0-0.933-0.428-1.399-1.281-1.399c-1.291,0-2.596,1.018-3.916,3.053S361.215,109.588,360.977,111.931z"/>
		<path stroke="#000000" stroke-width="1.5888" d="M371.461,116.905l1.668-1.965c0.873,2.064,2.264,3.098,4.17,3.098
			c0.992,0,1.842-0.323,2.547-0.969c0.703-0.645,1.057-1.395,1.057-2.248c0-0.615-0.168-1.143-0.506-1.579s-1.143-1.171-2.414-2.204
			c-1.17-0.953-1.961-1.703-2.367-2.248c-0.406-0.547-0.611-1.178-0.611-1.893c0-0.933,0.273-1.797,0.82-2.591
			c0.545-0.794,1.275-1.435,2.189-1.921c0.912-0.486,1.875-0.73,2.889-0.73c0.893,0,1.643,0.225,2.248,0.67
			c0.605,0.447,0.908,1.019,0.908,1.713c0,0.914-0.387,1.539-1.16,1.877c-0.119-0.934-0.473-1.663-1.059-2.189
			c-0.586-0.525-1.334-0.789-2.248-0.789c-0.814,0-1.523,0.264-2.129,0.789c-0.607,0.526-0.91,1.127-0.91,1.803
			c0,0.834,0.518,1.658,1.549,2.472l1.729,1.399c1.688,1.331,2.531,2.691,2.531,4.081c0,1.032-0.293,2.001-0.879,2.903
			c-0.586,0.904-1.379,1.624-2.383,2.16c-1.002,0.536-2.059,0.805-3.172,0.805C374.16,119.348,372.672,118.534,371.461,116.905z"/>
	</g>
	<g>
		<path stroke="#000000" stroke-width="0.7944" d="M288.587,83.644l1.831-8.452c0.312-1.436,0.564-2.932,0.754-4.49
			c0.191-1.558,0.286-2.996,0.286-4.314c0-0.303-0.005-0.571-0.015-0.806l1.611-0.732v0.41c0,0.645-0.059,1.685-0.176,3.12
			s-0.239,2.539-0.366,3.311c0.596-1.396,1.338-2.693,2.227-3.889s1.8-2.141,2.731-2.834c0.934-0.693,1.78-1.04,2.542-1.04
			s1.374,0.305,1.839,0.916c0.463,0.61,0.695,1.428,0.695,2.454c0,1.289-0.278,2.583-0.835,3.882s-1.315,2.495-2.278,3.589
			c-0.961,1.094-2.016,1.956-3.164,2.585c-1.146,0.63-2.282,0.945-3.405,0.945c-0.254,0-0.552-0.034-0.894-0.103l0.776-1.04
			c0.479,0.156,0.967,0.234,1.465,0.234c0.811,0,1.624-0.271,2.438-0.813c0.816-0.542,1.546-1.306,2.19-2.292
			c0.596-0.908,1.104-2.039,1.523-3.391s0.63-2.522,0.63-3.508c0-0.82-0.139-1.46-0.418-1.919c-0.277-0.459-0.666-0.688-1.164-0.688
			c-0.703,0-1.514,0.403-2.432,1.208s-1.816,1.897-2.695,3.274c-0.635,0.977-1.164,2.031-1.59,3.164
			c-0.424,1.133-0.803,2.446-1.135,3.94l-1.582,7.28H288.587z"/>
		<path stroke="#000000" stroke-width="0.7944" d="M301.463,79.484c0.84-1.016,1.401-1.963,1.685-2.842
			c-0.791-0.439-1.187-1.069-1.187-1.89c0-0.391,0.093-0.708,0.278-0.952s0.42-0.366,0.703-0.366c0.293,0,0.532,0.134,0.718,0.403
			s0.278,0.618,0.278,1.047c0,0.303-0.054,0.64-0.161,1.011c0.264,0.068,0.503,0.103,0.718,0.103c0.605,0,1.104-0.176,1.494-0.527
			h0.703l-0.103,0.205c-0.703,1.289-1.281,2.556-1.736,3.801c-0.453,1.245-0.681,2.175-0.681,2.791c0,0.225,0.059,0.413,0.176,0.564
			s0.259,0.227,0.425,0.227c0.4,0,1.045-0.425,1.934-1.274l0.234,0.264c-0.273,0.303-0.698,0.679-1.274,1.128
			c-0.518,0.41-1.001,0.615-1.45,0.615c-0.381,0-0.682-0.127-0.9-0.381c-0.221-0.254-0.33-0.601-0.33-1.04
			c0-0.732,0.283-1.66,0.85-2.783c0.205-0.42,0.469-0.898,0.791-1.436s0.728-1.177,1.216-1.919l0.146-0.205
			c-0.322,0.293-0.632,0.5-0.931,0.623c-0.297,0.122-0.637,0.183-1.018,0.183c-0.176,0-0.361-0.024-0.557-0.073
			c-0.312,0.957-0.898,1.943-1.758,2.959L301.463,79.484z M303.47,75.763c0.039-0.244,0.059-0.449,0.059-0.615
			c0-0.342-0.056-0.61-0.169-0.806c-0.111-0.195-0.256-0.293-0.432-0.293c-0.098,0-0.184,0.046-0.256,0.139
			c-0.074,0.093-0.11,0.208-0.11,0.344C302.562,74.992,302.864,75.402,303.47,75.763z"/>
		<path stroke="#000000" stroke-width="0.7944" d="M313.943,81.374l0.264,0.22c-0.605,0.801-1.196,1.379-1.772,1.736
			s-1.196,0.535-1.86,0.535c-0.791,0-1.426-0.264-1.904-0.791s-0.718-1.226-0.718-2.095c0-0.879,0.231-1.77,0.696-2.673
			c0.463-0.903,1.045-1.65,1.742-2.241c0.699-0.591,1.39-0.886,2.073-0.886c0.4,0,0.729,0.117,0.989,0.352
			c0.258,0.234,0.388,0.537,0.388,0.908c0,0.752-0.41,1.504-1.23,2.256s-1.938,1.392-3.354,1.919
			c-0.01,0.078-0.015,0.166-0.015,0.264c0,0.674,0.186,1.223,0.557,1.648s0.85,0.637,1.436,0.637c0.459,0,0.903-0.144,1.333-0.432
			S313.455,81.989,313.943,81.374z M309.256,80.26c1.055-0.469,1.865-0.991,2.432-1.567c0.381-0.391,0.688-0.811,0.923-1.26
			s0.352-0.854,0.352-1.216c0-0.459-0.21-0.688-0.63-0.688c-0.635,0-1.277,0.5-1.926,1.501
			C309.756,78.031,309.373,79.108,309.256,80.26z"/>
		<path stroke="#000000" stroke-width="0.7944" d="M315.613,75.675l1.318-0.601v0.381c0.029,1.426,0.112,2.925,0.249,4.497
			c0.078,0.82,0.146,1.428,0.205,1.824s0.127,0.662,0.205,0.798s0.186,0.205,0.322,0.205c0.361,0,1.006-0.688,1.934-2.065
			c0.83-1.211,1.245-2.329,1.245-3.354c0-0.361-0.044-0.662-0.132-0.901s-0.254-0.481-0.498-0.725l1.099-1.025
			c0.342,0.449,0.513,0.996,0.513,1.641c0,1.299-0.771,3.013-2.314,5.142c-0.469,0.645-0.967,1.221-1.494,1.729
			c-0.244,0.225-0.442,0.383-0.593,0.476c-0.152,0.093-0.301,0.139-0.447,0.139c-0.234,0-0.405-0.093-0.513-0.278
			s-0.19-0.537-0.249-1.055L315.613,75.675z"/>
		<path stroke="#000000" stroke-width="0.7944" d="M325.809,75.075l-1.289,4.819c-0.215,0.791-0.322,1.426-0.322,1.904
			c0,0.312,0.054,0.566,0.161,0.762s0.249,0.293,0.425,0.293c0.303,0,0.786-0.361,1.45-1.084l0.234,0.205l-0.146,0.161
			c-0.557,0.654-0.967,1.096-1.23,1.326s-0.508,0.344-0.732,0.344c-0.303,0-0.56-0.154-0.769-0.461
			c-0.211-0.308-0.315-0.691-0.315-1.15c0-0.293,0.059-0.757,0.176-1.392l0.923-5.127L325.809,75.075z M326.233,69.333
			c0.254,0,0.459,0.078,0.615,0.234s0.234,0.361,0.234,0.615c0,0.244-0.083,0.449-0.249,0.615s-0.366,0.249-0.601,0.249
			c-0.225,0-0.425-0.088-0.601-0.264s-0.264-0.376-0.264-0.601c0-0.234,0.083-0.435,0.249-0.601S325.989,69.333,326.233,69.333z"/>
		<path stroke="#000000" stroke-width="0.7944" d="M327.2,80.832c0-0.879,0.237-1.755,0.71-2.629
			c0.475-0.874,1.087-1.584,1.839-2.131s1.519-0.82,2.3-0.82c0.82,0,1.482,0.271,1.984,0.813c0.504,0.542,0.755,1.243,0.755,2.102
			c0,0.938-0.231,1.846-0.696,2.725c-0.463,0.879-1.074,1.599-1.83,2.161c-0.758,0.562-1.521,0.842-2.293,0.842
			c-0.83,0-1.499-0.281-2.007-0.842S327.2,81.75,327.2,80.832z M333.47,77.609c0-0.586-0.144-1.069-0.433-1.45
			c-0.287-0.381-0.656-0.571-1.105-0.571c-0.41,0-0.803,0.132-1.18,0.396c-0.375,0.264-0.72,0.649-1.032,1.157
			c-0.352,0.586-0.642,1.27-0.872,2.051c-0.229,0.781-0.344,1.475-0.344,2.08c0,0.723,0.142,1.279,0.425,1.67
			s0.688,0.586,1.216,0.586c0.85,0,1.597-0.591,2.241-1.772c0.332-0.605,0.596-1.284,0.791-2.036S333.47,78.263,333.47,77.609z"/>
		<path stroke="#000000" stroke-width="0.7944" d="M338.963,75.075l-1.421,5.669c-0.127,0.508-0.19,0.938-0.19,1.289
			c0,0.342,0.107,0.615,0.322,0.82s0.493,0.308,0.835,0.308c0.829,0,1.694-0.679,2.593-2.036l0.059-0.088
			c0.02-0.098,0.033-0.176,0.043-0.234l0.924-5.127l1.436-0.601l-1.289,4.819c-0.215,0.791-0.322,1.426-0.322,1.904
			c0,0.312,0.053,0.566,0.16,0.762s0.25,0.293,0.426,0.293c0.303,0,0.785-0.361,1.449-1.084l0.234,0.205l-0.146,0.161
			c-0.557,0.654-0.967,1.096-1.23,1.326s-0.508,0.344-0.732,0.344c-0.303,0-0.559-0.154-0.768-0.461
			c-0.211-0.308-0.316-0.691-0.316-1.15c0-0.146,0.006-0.283,0.016-0.41c-1.016,1.348-2.021,2.021-3.018,2.021
			c-0.498,0-0.896-0.144-1.193-0.432c-0.299-0.288-0.447-0.671-0.447-1.15c0-0.371,0.054-0.825,0.161-1.362l0.996-5.186
			L338.963,75.075z"/>
		<path stroke="#000000" stroke-width="0.7944" d="M344.221,82.707l0.82-0.967c0.43,1.016,1.113,1.523,2.051,1.523
			c0.488,0,0.906-0.159,1.252-0.476c0.348-0.317,0.521-0.686,0.521-1.106c0-0.303-0.084-0.562-0.25-0.776s-0.561-0.576-1.186-1.084
			c-0.576-0.469-0.965-0.837-1.166-1.106c-0.199-0.269-0.299-0.579-0.299-0.93c0-0.459,0.133-0.884,0.402-1.274
			c0.268-0.391,0.627-0.706,1.076-0.945s0.924-0.359,1.422-0.359c0.439,0,0.807,0.11,1.105,0.33c0.297,0.22,0.447,0.5,0.447,0.842
			c0,0.449-0.191,0.757-0.572,0.923c-0.059-0.459-0.232-0.818-0.52-1.077c-0.289-0.259-0.656-0.388-1.105-0.388
			c-0.4,0-0.75,0.129-1.049,0.388c-0.297,0.259-0.445,0.554-0.445,0.886c0,0.41,0.254,0.815,0.762,1.216l0.85,0.688
			c0.83,0.654,1.244,1.323,1.244,2.007c0,0.508-0.145,0.984-0.432,1.428c-0.289,0.444-0.68,0.798-1.172,1.062
			c-0.494,0.264-1.014,0.396-1.561,0.396C345.549,83.908,344.816,83.507,344.221,82.707z"/>
	</g>
</g>
</svg>
